<?xml version="1.0" standalone="no"?>
<!DOCTYPE svg PUBLIC "-//W3C//DTD SVG 20010904//EN"
 "http://www.w3.org/TR/2001/REC-SVG-20010904/DTD/svg10.dtd">
<svg version="1.0" xmlns="http://www.w3.org/2000/svg"
 width="1283.000000pt" height="200.000000pt" viewBox="0 0 1283.000000 200.000000"
 preserveAspectRatio="xMidYMid meet">

<g transform="translate(0.000000,200.000000) scale(0.100000,-0.100000)"
fill="#38761D" stroke="none">
<path d="M1302 1770 c-22 -47 -180 -382 -351 -745 -172 -363 -313 -664 -314
-670 -1 -5 5 -8 13 -6 8 2 327 6 707 10 381 4 695 10 699 13 5 5 -521 1101
-670 1396 l-44 87 -40 -85z"/>
<path d="M258 1557 c-111 -32 -179 -124 -178 -241 1 -110 35 -158 197 -288
201 -161 253 -234 233 -325 -23 -101 -138 -165 -243 -133 -43 13 -140 102
-152 140 -8 26 -17 25 -66 -5 l-40 -26 18 -31 c33 -57 105 -129 157 -156 45
-24 62 -27 146 -27 74 0 103 4 130 19 64 34 106 74 136 128 25 46 29 63 29
128 0 63 -5 84 -29 129 -35 68 -104 137 -226 227 -169 125 -210 192 -171 279
16 36 29 50 63 65 80 36 140 20 215 -57 l52 -55 41 32 c22 17 40 35 40 39 0
17 -112 120 -152 139 -56 28 -140 35 -200 19z"/>
<path d="M4358 1413 l-3 -148 -67 -3 -68 -3 0 -39 0 -40 70 0 70 0 0 -350 0
-350 50 0 50 0 0 350 0 350 80 0 80 0 0 40 0 39 -77 3 -78 3 -3 148 -3 147
-49 0 -49 0 -3 -147z"/>
<path d="M1963 1270 l-131 -228 164 -334 164 -333 300 -5 c165 -3 300 -4 300
-3 0 1 -496 846 -644 1095 l-21 36 -132 -228z"/>
<path d="M5625 1439 c-116 -19 -204 -68 -285 -156 -88 -96 -120 -185 -120
-329 0 -293 205 -494 505 -494 77 0 181 22 236 50 60 30 146 96 160 122 10 19
8 25 -22 49 l-33 27 -49 -44 c-132 -119 -323 -145 -484 -67 -74 36 -165 134
-192 208 -60 159 -23 323 96 436 160 152 415 152 576 1 l52 -50 34 28 c33 28
33 30 18 53 -47 72 -189 150 -302 167 -80 11 -120 11 -190 -1z"/>
<path d="M6350 965 l0 -485 45 0 45 0 0 485 0 485 -45 0 -45 0 0 -485z"/>
<path d="M2949 1257 c-70 -29 -105 -54 -154 -108 -89 -99 -125 -247 -91 -379
76 -297 438 -408 659 -202 l47 45 0 -67 0 -66 50 0 50 0 0 390 0 390 -50 0
-50 0 0 -65 0 -64 -44 44 c-24 24 -68 56 -98 71 -46 24 -67 28 -158 31 -92 3
-112 1 -161 -20z m242 -83 c137 -41 223 -157 222 -304 0 -100 -27 -164 -99
-229 -158 -145 -390 -99 -486 96 -60 122 -39 254 55 351 88 91 193 120 308 86z"/>
<path d="M3950 1259 c-19 -11 -52 -39 -72 -62 l-38 -42 0 53 0 52 -50 0 -50 0
0 -390 0 -390 49 0 49 0 4 253 c4 226 7 257 26 305 30 76 65 118 116 137 34
13 52 15 74 7 27 -9 30 -7 55 34 l27 45 -26 9 c-44 17 -126 12 -164 -11z"/>
<path d="M6902 1190 c-62 -13 -137 -57 -183 -108 -177 -191 -98 -516 145 -598
35 -12 71 -15 135 -12 95 5 143 23 219 85 l42 34 0 -55 0 -56 45 0 45 0 0 350
0 350 -45 0 -45 0 0 -61 0 -61 -42 42 c-24 24 -65 53 -93 66 -57 26 -159 37
-223 24z m182 -96 c66 -23 139 -97 161 -165 38 -115 10 -237 -72 -309 -161
-142 -409 -57 -453 156 -28 133 54 275 185 322 45 16 126 14 179 -4z"/>
<path d="M7670 1188 c-52 -15 -86 -43 -109 -91 -25 -51 -27 -104 -6 -155 23
-54 50 -78 144 -130 143 -80 175 -143 110 -216 -51 -59 -140 -61 -203 -6 -19
17 -38 30 -42 29 -5 0 -20 -14 -33 -30 -22 -29 -23 -31 -6 -49 36 -40 115 -70
184 -70 87 0 143 27 183 89 27 42 29 52 26 117 -4 93 -27 122 -147 193 -115
68 -155 111 -147 159 15 93 110 114 208 46 l38 -27 25 23 c14 13 25 28 25 34
0 17 -90 73 -135 85 -47 13 -68 13 -115 -1z"/>
<path d="M8234 1190 c-78 -18 -134 -92 -134 -176 0 -89 41 -140 171 -211 99
-55 124 -82 124 -139 0 -36 -6 -49 -32 -75 -26 -26 -42 -33 -85 -37 -48 -4
-58 -1 -107 32 -29 20 -55 36 -56 36 -2 0 -13 -14 -25 -31 l-22 -30 22 -24
c41 -43 115 -67 195 -63 120 6 186 68 193 183 7 106 -25 144 -202 246 -88 51
-118 114 -80 168 9 13 32 30 51 37 42 18 98 5 141 -31 37 -31 43 -31 73 1 l24
26 -39 34 c-39 34 -119 65 -160 63 -12 -1 -35 -4 -52 -9z"/>
<path d="M8874 1189 c-18 -5 -55 -30 -83 -55 l-51 -46 0 46 0 46 -40 0 -40 0
0 -350 0 -350 39 0 38 0 6 218 c4 159 10 231 21 269 29 91 97 150 162 140 29
-5 37 -1 54 23 27 38 25 46 -11 59 -37 13 -52 13 -95 0z"/>
<path d="M9362 1190 c-103 -22 -202 -104 -250 -208 -23 -49 -27 -70 -27 -152
0 -82 4 -103 27 -153 37 -79 118 -158 191 -185 79 -30 204 -30 281 -1 77 28
148 96 188 177 30 61 33 74 33 162 0 87 -3 101 -32 161 -60 121 -167 194 -298
203 -39 3 -89 1 -113 -4z m170 -96 c136 -46 215 -206 173 -350 -13 -48 -27
-69 -73 -114 -63 -62 -108 -80 -193 -80 -70 0 -142 34 -191 88 -53 59 -71 105
-72 187 -1 87 24 146 88 209 74 71 171 93 268 60z"/>
<path d="M10254 1190 c-101 -20 -212 -110 -257 -208 -18 -39 -22 -65 -22 -152
0 -95 3 -110 28 -160 36 -70 98 -134 162 -168 46 -25 60 -27 165 -27 102 0
121 3 165 25 70 34 131 99 167 177 28 58 31 77 31 154 0 82 -2 94 -37 163 -55
112 -134 174 -251 195 -66 12 -92 12 -151 1z m181 -104 c66 -30 138 -110 156
-173 63 -226 -135 -422 -352 -348 -165 56 -233 280 -128 424 80 111 211 150
324 97z"/>
<path d="M11155 1191 c-52 -14 -111 -49 -143 -85 -17 -20 -34 -36 -37 -36 -3
0 -5 25 -5 55 l0 55 -40 0 -40 0 0 -350 0 -350 39 0 38 0 6 208 c6 247 17 292
81 357 50 50 101 69 163 62 53 -6 90 -30 118 -78 18 -31 20 -55 23 -291 l3
-258 45 0 44 0 0 183 c0 254 14 319 81 385 93 90 235 78 285 -25 16 -33 19
-71 22 -290 l4 -253 39 0 39 0 0 253 c0 276 -6 319 -55 383 -92 120 -299 101
-398 -37 l-29 -40 -31 53 c-23 37 -45 59 -77 75 -50 26 -128 36 -175 24z"/>
</g>
</svg>
