<?xml version="1.0" standalone="no"?>
<!DOCTYPE svg PUBLIC "-//W3C//DTD SVG 20010904//EN"
 "http://www.w3.org/TR/2001/REC-SVG-20010904/DTD/svg10.dtd">
<svg version="1.0" xmlns="http://www.w3.org/2000/svg"
 width="512.000000pt" height="223.000000pt" viewBox="0 0 512.000000 223.000000"
 preserveAspectRatio="xMidYMid meet">

<g transform="translate(0.000000,223.000000) scale(0.100000,-0.100000)"
fill="#38761D" stroke="none">
<path d="M1522 2140 c-22 -47 -180 -382 -351 -745 -172 -363 -313 -664 -314
-670 -1 -5 5 -8 13 -6 8 2 327 6 707 10 381 4 695 10 699 13 5 5 -521 1101
-670 1396 l-44 87 -40 -85z"/>
<path d="M268 1927 c-111 -32 -179 -124 -178 -241 1 -110 35 -158 197 -288
201 -161 253 -234 233 -325 -23 -101 -138 -165 -243 -133 -43 13 -140 102
-152 140 -8 26 -17 25 -66 -5 l-40 -26 18 -31 c33 -57 105 -129 157 -156 45
-24 62 -27 146 -27 74 0 103 4 130 19 64 34 106 74 136 128 25 46 29 63 29
128 0 63 -5 84 -29 129 -35 68 -104 137 -226 227 -169 125 -210 192 -171 279
16 36 29 50 63 65 80 36 140 20 215 -57 l52 -55 41 32 c22 17 40 35 40 39 0
17 -112 120 -152 139 -56 28 -140 35 -200 19z"/>
<path d="M4828 1783 l-3 -148 -67 -3 -68 -3 0 -39 0 -40 70 0 70 0 0 -350 0
-350 50 0 50 0 0 350 0 350 80 0 80 0 0 40 0 39 -77 3 -78 3 -3 148 -3 147
-49 0 -49 0 -3 -147z"/>
<path d="M2183 1640 l-131 -228 164 -334 164 -333 300 -5 c165 -3 300 -4 300
-3 0 1 -496 846 -644 1095 l-21 36 -132 -228z"/>
<path d="M3439 1636 c-172 -66 -279 -216 -279 -391 0 -354 410 -542 670 -308
l50 45 0 -66 0 -66 50 0 50 0 0 390 0 390 -50 0 -50 0 0 -66 0 -66 -44 45
c-24 25 -68 58 -97 73 -47 25 -67 28 -159 31 -71 2 -117 -2 -141 -11z m224
-93 c67 -18 155 -90 187 -152 44 -87 44 -215 0 -302 -28 -54 -112 -125 -172
-145 -137 -45 -276 1 -357 120 -124 180 -39 415 174 482 55 17 99 17 168 -3z"/>
<path d="M4409 1621 c-25 -15 -57 -44 -72 -62 l-27 -34 0 53 0 52 -50 0 -50 0
0 -390 0 -390 49 0 49 0 4 253 c4 231 6 257 27 310 29 75 61 112 116 132 33
13 51 15 73 7 27 -9 30 -7 55 34 l27 45 -26 9 c-52 20 -127 12 -175 -19z"/>
<path d="M360 498 c-19 -7 -58 -35 -86 -63 -43 -43 -54 -61 -64 -108 -26 -112
25 -225 123 -276 90 -46 231 -29 299 36 21 20 25 30 17 40 -16 19 -33 16 -55
-8 -43 -48 -148 -64 -222 -34 -137 58 -163 232 -49 332 79 69 182 69 270 1 34
-27 41 -29 53 -16 13 13 11 18 -13 42 -15 15 -41 35 -58 44 -38 19 -168 25
-215 10z"/>
<path d="M1631 494 c-31 -22 -52 -75 -45 -113 7 -34 24 -54 107 -124 32 -27
65 -60 73 -73 32 -48 -11 -114 -74 -114 -25 0 -43 9 -68 34 -56 56 -90 26 -36
-32 57 -60 156 -61 206 -2 58 70 36 146 -67 226 -72 56 -84 70 -93 103 -6 19
-1 30 20 48 36 30 58 29 98 -6 30 -26 36 -28 52 -15 19 13 19 14 0 35 -44 49
-127 65 -173 33z"/>
<path d="M2004 500 c-34 -13 -54 -50 -54 -99 0 -44 3 -47 95 -136 105 -101
116 -125 70 -170 -37 -38 -89 -34 -131 10 -21 22 -38 33 -48 29 -23 -9 -20
-28 12 -62 55 -59 145 -61 204 -5 63 61 40 149 -60 227 -66 50 -102 90 -102
113 0 21 46 63 69 63 11 0 35 -13 53 -29 30 -26 36 -28 52 -15 19 13 19 14 0
35 -40 44 -107 61 -160 39z"/>
<path d="M3065 486 c-60 -28 -87 -56 -114 -116 -25 -55 -27 -145 -5 -198 37
-89 122 -144 223 -144 83 -1 143 24 190 77 45 52 61 93 61 162 0 183 -187 299
-355 219z m166 -27 c86 -29 139 -101 139 -189 0 -67 -18 -107 -68 -152 -86
-78 -224 -60 -291 38 -55 80 -45 180 24 250 59 59 125 76 196 53z"/>
<path d="M3652 484 c-86 -43 -132 -121 -132 -221 1 -140 102 -236 250 -236 75
0 126 22 177 75 59 62 79 157 52 249 -40 133 -214 200 -347 133z m172 -25 c22
-6 56 -29 81 -53 125 -125 38 -336 -139 -336 -60 0 -94 14 -138 57 -86 84 -78
226 16 298 57 43 110 53 180 34z"/>
<path d="M780 265 l0 -235 115 0 115 0 0 25 c0 25 -1 25 -90 25 l-90 0 0 210
0 210 -25 0 -25 0 0 -235z"/>
<path d="M1183 282 c-128 -273 -121 -252 -91 -252 21 0 30 12 62 80 l38 80
102 0 103 0 36 -80 c31 -69 39 -80 61 -80 24 0 25 1 11 33 -45 107 -203 431
-211 433 -5 2 -55 -94 -111 -214z m187 -44 c0 -5 -34 -8 -75 -8 -41 0 -75 4
-75 9 0 4 17 44 37 87 l36 79 38 -80 c21 -44 39 -83 39 -87z"/>
<path d="M2520 265 c0 -228 1 -235 20 -235 19 0 20 7 20 110 0 144 8 144 120
0 72 -93 89 -110 113 -110 15 0 27 2 27 4 0 2 -36 50 -80 106 -44 57 -77 107
-74 111 3 5 20 9 37 9 47 0 93 32 107 75 22 66 -2 120 -67 154 -12 6 -67 11
-122 11 l-101 0 0 -235z m226 162 c31 -36 30 -71 -1 -102 -22 -22 -32 -25
-105 -25 l-80 0 0 73 c0 41 3 77 8 81 4 4 40 6 81 4 65 -3 76 -6 97 -31z"/>
<path d="M4170 497 c0 -2 -13 -104 -30 -227 -16 -123 -30 -227 -30 -232 0 -5
10 -8 22 -6 22 3 24 12 41 153 10 83 20 157 23 165 4 9 41 -54 91 -155 l86
-170 84 169 c46 92 86 166 89 163 3 -3 14 -67 25 -144 26 -184 26 -183 50
-183 17 0 20 5 15 27 -3 16 -17 116 -31 223 -15 107 -29 202 -32 210 -3 9 -46
-68 -103 -180 l-98 -195 -92 193 c-51 105 -97 192 -102 192 -4 0 -8 -1 -8 -3z"/>
</g>
</svg>
