<?xml version="1.0" standalone="no"?>
<!DOCTYPE svg PUBLIC "-//W3C//DTD SVG 20010904//EN"
 "http://www.w3.org/TR/2001/REC-SVG-20010904/DTD/svg10.dtd">
<svg version="1.0" xmlns="http://www.w3.org/2000/svg"
 width="512.000000pt" height="223.000000pt" viewBox="0 0 512.000000 223.000000"
 preserveAspectRatio="xMidYMid meet">

<g transform="translate(0.000000,223.000000) scale(0.100000,-0.100000)"
fill="#38761D" stroke="none">
<path d="M1542 1980 c-22 -47 -180 -382 -351 -745 -172 -363 -313 -664 -314
-670 -1 -5 5 -8 13 -6 8 2 327 6 707 10 381 4 695 10 699 13 5 5 -521 1101
-670 1396 l-44 87 -40 -85z"/>
<path d="M498 1767 c-111 -32 -179 -124 -178 -241 1 -110 35 -158 197 -288
201 -161 253 -234 233 -325 -23 -101 -138 -165 -243 -133 -43 13 -140 102
-152 140 -8 26 -17 25 -66 -5 l-40 -26 18 -31 c33 -57 105 -129 157 -156 45
-24 62 -27 146 -27 74 0 103 4 130 19 64 34 106 74 136 128 25 46 29 63 29
128 0 63 -5 84 -29 129 -35 68 -104 137 -226 227 -169 125 -210 192 -171 279
16 36 29 50 63 65 80 36 140 20 215 -57 l52 -55 41 32 c22 17 40 35 40 39 0
17 -112 120 -152 139 -56 28 -140 35 -200 19z"/>
<path d="M4598 1623 l-3 -148 -67 -3 -68 -3 0 -39 0 -40 70 0 70 0 0 -350 0
-350 50 0 50 0 0 350 0 350 80 0 80 0 0 40 0 39 -77 3 -78 3 -3 148 -3 147
-49 0 -49 0 -3 -147z"/>
<path d="M2203 1480 l-131 -228 164 -334 164 -333 300 -5 c165 -3 300 -4 300
-3 0 1 -496 846 -644 1095 l-21 36 -132 -228z"/>
<path d="M3189 1467 c-70 -29 -105 -54 -154 -108 -89 -99 -125 -247 -91 -379
76 -297 438 -408 659 -202 l47 45 0 -67 0 -66 50 0 50 0 0 390 0 390 -50 0
-50 0 0 -65 0 -64 -44 44 c-24 24 -68 56 -98 71 -46 24 -67 28 -158 31 -92 3
-112 1 -161 -20z m242 -83 c137 -41 223 -157 222 -304 0 -100 -27 -164 -99
-229 -158 -145 -390 -99 -486 96 -60 122 -39 254 55 351 88 91 193 120 308 86z"/>
<path d="M4190 1469 c-19 -11 -52 -39 -72 -62 l-38 -42 0 53 0 52 -50 0 -50 0
0 -390 0 -390 49 0 49 0 4 253 c4 226 7 257 26 305 30 76 65 118 116 137 34
13 52 15 74 7 27 -9 30 -7 55 34 l27 45 -26 9 c-44 17 -126 12 -164 -11z"/>
</g>
</svg>
